<?xml version="1.0" encoding="UTF-8"?>
<svg width="601px" height="246px" viewBox="0 0 601 246" version="1.1" xmlns="http://www.w3.org/2000/svg" xmlns:xlink="http://www.w3.org/1999/xlink">
    <!-- Generator: Sketch 60 (88103) - https://sketch.com -->
    <title>bg-net</title>
    <desc>Created with Sketch.</desc>
    <g id="Page-1" stroke="none" stroke-width="1" fill="none" fill-rule="evenodd" opacity="0.1">
        <g id="bg-net">
            <path d="M450.635,170.585 C447.354,170.585 444.693,167.84 444.693,164.455 C444.693,161.07 447.354,158.324 450.635,158.324 C453.916,158.324 456.577,161.07 456.577,164.455 C456.577,167.84 453.916,170.585 450.635,170.585 Z" id="Path" fill="#2C458C" fill-rule="nonzero"></path>
            <path d="M401.541,194.078 C398.26,194.078 395.6,191.334 395.6,187.948 C395.6,184.562 398.26,181.817 401.541,181.817 C404.823,181.817 407.483,184.562 407.483,187.948 C407.483,191.334 404.823,194.078 401.541,194.078 Z" id="Path" fill="#2C458C" fill-rule="nonzero"></path>
            <path d="M148.456,46.189 C145.217,45.6439 143.02,42.4931 143.549,39.1516 C144.077,35.8101 147.131,33.5432 150.369,34.0883 C153.608,34.6335 155.805,37.7842 155.277,41.1257 C154.748,44.4672 151.695,46.7341 148.456,46.189 Z" id="Path" fill="#2C458C" fill-rule="nonzero"></path>
            <path d="M440.958,86.0669 C437.677,86.0669 435.016,83.3221 435.016,79.9362 C435.016,76.5503 437.677,73.8054 440.958,73.8054 C444.24,73.8054 446.9,76.5503 446.9,79.9362 C446.9,83.3221 444.24,86.0669 440.958,86.0669 Z" id="Path" fill="#2C458C" fill-rule="nonzero"></path>
            <path d="M467.309,87.97 C464.027,87.97 461.367,85.2252 461.367,81.8393 C461.367,78.4534 464.027,75.7085 467.309,75.7085 C470.591,75.7085 473.251,78.4534 473.251,81.8393 C473.251,85.2252 470.591,87.97 467.309,87.97 Z" id="Path" fill="#2C458C" fill-rule="nonzero"></path>
            <path d="M568.248,68.252 C564.966,68.252 562.306,65.5072 562.306,62.1215 C562.306,58.7357 564.966,55.991 568.248,55.991 C571.529,55.991 574.189,58.7357 574.189,62.1215 C574.189,65.5072 571.529,68.252 568.248,68.252 Z" id="Path" fill="#2C458C" fill-rule="nonzero"></path>
            <path d="M589.573,16.7705 C586.335,16.224 584.139,13.0721 584.668,9.73048 C585.198,6.38886 588.253,4.12298 591.491,4.66948 C594.73,5.21597 596.926,8.3679 596.396,11.7095 C595.867,15.0511 592.812,17.317 589.573,16.7705 Z" id="Path" fill="#2C458C" fill-rule="nonzero"></path>
            <path d="M141.609,131.528 C138.371,130.983 136.174,127.832 136.702,124.491 C137.23,121.149 140.284,118.882 143.523,119.427 C146.761,119.972 148.958,123.123 148.43,126.465 C147.902,129.806 144.848,132.073 141.609,131.528 Z" id="Path" fill="#6C90C9" fill-rule="nonzero"></path>
            <path d="M249.694,199.806 C246.659,198.518 245.211,194.935 246.46,191.804 C247.709,188.672 251.181,187.178 254.216,188.467 C257.251,189.755 258.699,193.338 257.45,196.469 C256.201,199.6 252.729,201.094 249.694,199.806 Z" id="Path" fill="#56739C" fill-rule="nonzero"></path>
            <path d="M530.273,233.349 C527.238,232.063 525.788,228.481 527.034,225.349 C528.281,222.218 531.752,220.721 534.788,222.008 C537.823,223.294 539.274,226.876 538.027,230.007 C536.78,233.139 533.309,234.636 530.273,233.349 Z" id="Path" fill="#6C90C9" fill-rule="nonzero"></path>
            <path d="M557.953,42.1074 C554.672,42.1074 552.011,39.3618 552.011,35.9765 C552.011,32.5913 554.672,29.8457 557.953,29.8457 C561.233,29.8457 563.894072,32.5913 563.894072,35.9765 C563.91,39.3618 561.249,42.1074 557.953,42.1074 Z" id="Path" fill="#6C90C9" fill-rule="nonzero"></path>
            <path d="M472.253,114.162 C468.972,114.162 466.311,111.417 466.311,108.031 C466.311,104.645 468.972,101.901 472.253,101.901 C475.535,101.901 478.195,104.645 478.195,108.031 C478.195,111.417 475.535,114.162 472.253,114.162 Z" id="Path" fill="#6C90C9" fill-rule="nonzero"></path>
            <path d="M240.791,158.293 C237.509,158.293 234.849,155.548 234.849,152.162 C234.849,148.777 237.509,146.032 240.791,146.032 C244.072,146.032 246.732,148.777 246.732,152.162 C246.732,155.548 244.072,158.293 240.791,158.293 Z" id="Path" fill="#6C90C9" fill-rule="nonzero"></path>
            <polyline id="Path" stroke="#2C458C" stroke-width="0.8659" points="450.634 164.533 154.883 164.533 76.3533 83.4929 16.8283 83.4929"></polyline>
            <polyline id="Path" stroke="#2C458C" stroke-width="0.8659" points="401.542 187.948 280.662 187.948 257.893 164.455"></polyline>
            <polyline id="Path" stroke="#2C458C" stroke-width="0.8659" points="440.959 80.0143 411.748 110.168 233.733 110.168 207.924 136.797 179.59 136.797 103.751 58.5493 0.576572 58.5493"></polyline>
            <polyline id="Path" stroke="#2C458C" stroke-width="0.8659" points="590.519 10.7053 336.498 10.7053 299.38 49.002 195.993 49.002 159.646 11.4853 12.0811 11.4853"></polyline>
            <polyline id="Path" stroke="#6C90C9" stroke-width="0.8659" points="472.255 108.031 451.284 129.668 333.429 129.668 311.642 152.162 240.792 152.162"></polyline>
            <polyline id="Path" stroke="#6C90C9" stroke-width="0.8659" points="532.504 227.68 424.854 227.68 405.456 207.666 226.518 207.666 199.106 179.368 110.099 179.368 46.4157 245.073 7.07503 245.073"></polyline>
            <path d="M251.95,194.094 C250,194.094 126.973,194.094 126.973,194.094 L110.599,210.989 L16.8438,210.989" id="Path" stroke="#56739C" stroke-width="0.8659"></path>
            <polyline id="Path" stroke="#2C458C" stroke-width="0.8659" points="117.72 126.189 87.3902 126.189 73.571 140.463"></polyline>
            <polyline id="Path" stroke="#6C90C9" stroke-width="0.8659" points="557.95 35.9766 456.575 35.9766 428.12 65.335 163.47 65.335 126.141 103.85 16.8274 103.85"></polyline>
            <polyline id="Path" stroke="#2C458C" stroke-width="0.8659" points="149.366 40.1416 111.855 78.8286 88.9341 78.8286 69.7476 59.0327"></polyline>
            <polyline id="Path" stroke="#6C90C9" stroke-width="0.8659" points="392.953 65.335 373.358 85.552 246.734 85.552 232.975 99.7477 167.463 99.7477 142.516 125.487"></polyline>
            <polyline id="Path" stroke="#2C458C" stroke-width="0.8659" points="467.311 81.8394 485.983 62.5583 568.248 62.5583"></polyline>
            <path d="M590.519,20.4395 C585.308,20.4395 581.084,16.0813 581.084,10.7052 C581.084,5.32915 585.308,0.970947 590.519,0.970947 C595.729,0.970947 599.953,5.32915 599.953,10.7052 C599.953,16.0813 595.729,20.4395 590.519,20.4395 Z" id="Path" stroke="#2C458C" stroke-width="0.3464"></path>
            <path d="M568.246,71.8557 C563.036,71.8557 558.812,67.4976 558.812,62.1216 C558.812,56.7456 563.036,52.3875 568.246,52.3875 C573.457,52.3875 577.681,56.7456 577.681,62.1216 C577.681,67.4976 573.457,71.8557 568.246,71.8557 Z" id="Path" stroke="#2C458C" stroke-width="0.3464"></path>
            <path d="M467.311,91.5735 C462.1,91.5735 457.876,87.2154 457.876,81.8394 C457.876,76.4634 462.1,72.1052 467.311,72.1052 C472.521,72.1052 476.745,76.4634 476.745,81.8394 C476.745,87.2154 472.521,91.5735 467.311,91.5735 Z" id="Path" stroke="#2C458C" stroke-width="0.3464"></path>
            <path d="M450.634,174.267 C445.423,174.267 441.199,169.909 441.199,164.533 C441.199,159.157 445.423,154.799 450.634,154.799 C455.844,154.799 460.068,159.157 460.068,164.533 C460.068,169.909 455.844,174.267 450.634,174.267 Z" id="Path" stroke="#2C458C" stroke-width="0.3464"></path>
            <path d="M149.366,49.8757 C144.15,49.8757 139.932,45.5235 139.932,40.1416 C139.932,34.7597 144.15,30.4075 149.366,30.4075 C154.582,30.4075 158.801,34.7597 158.801,40.1416 C158.801,45.5079 154.582,49.8757 149.366,49.8757 Z" id="Path" stroke="#2C458C" stroke-width="0.3464"></path>
            <path d="M401.54,197.682 C396.324,197.682 392.106,193.33 392.106,187.948 C392.106,182.566 396.324,178.214 401.54,178.214 C406.756,178.214 410.975,182.566 410.975,187.948 C410.975,193.33 406.756,197.682 401.54,197.682 Z" id="Path" stroke="#2C458C" stroke-width="0.3464"></path>
            <path d="M440.957,89.6704 C435.747,89.6704 431.523,85.3123 431.523,79.9363 C431.523,74.5603 435.747,70.2021 440.957,70.2021 C446.168,70.2021 450.392,74.5603 450.392,79.9363 C450.392,85.3123 446.168,89.6704 440.957,89.6704 Z" id="Path" stroke="#2C458C" stroke-width="0.3464"></path>
        </g>
    </g>
</svg>