<svg width="60" height="60" viewBox="0 0 60 60" fill="none" xmlns="http://www.w3.org/2000/svg">
<g clip-path="url(#clip0)">
<path d="M14.9326 15.9123C15.8893 15.7471 16.5306 14.838 16.3658 13.8812C15.4297 8.45673 19.6141 3.51562 25.084 3.51562C30.5373 3.51562 34.729 8.43338 33.8057 13.8597C33.6432 14.8169 34.2868 15.7246 35.244 15.8876C36.2012 16.051 37.1089 15.4065 37.2719 14.4493C38.5564 6.89667 32.7272 0 25.084 0C17.4494 0 11.5923 6.89575 12.9015 14.4791C13.0667 15.4385 13.9795 16.0771 14.9326 15.9123Z" fill="#3376FC"/>
<path d="M43.7887 28.2006C42.4713 25.6147 39.3333 24.5824 36.7575 25.8568C35.56 23.5062 32.8212 22.3957 30.3318 23.2599V12.4947C30.3318 9.62543 28.0261 7.22812 25.1912 7.1503C22.2207 7.06607 19.7593 9.44507 19.7593 12.4219V39.5018L17.6944 37.3394C15.7122 35.2643 12.3935 35.1183 10.2955 37.0148C8.08178 39.0157 7.97146 42.4228 10.0099 44.5642L21.8779 57.2228C23.5327 58.9875 25.87 60 28.2898 60H42.6036C47.4499 60 51.3926 56.0573 51.3926 51.211V32.9297C51.3926 29.0355 47.2851 26.4707 43.7887 28.2006ZM47.877 51.211C47.877 54.1187 45.5113 56.4844 42.6036 56.4844H28.2898C26.8377 56.4844 25.4356 55.877 24.4427 54.8177C24.4001 54.7728 12.6008 42.1875 12.5583 42.1427C11.8785 41.4304 11.911 40.2938 12.6526 39.6227C13.3516 38.9914 14.4726 39.0564 15.1515 39.7673L20.2455 45.1017C21.3377 46.2461 23.2745 45.4697 23.2745 43.8881V12.4219C23.2745 11.4341 24.0939 10.6366 25.0955 10.6646C26.0444 10.6906 26.8162 11.5114 26.8162 12.4947C26.8162 31.837 26.7833 23.0695 26.7833 33.5157C26.7833 34.4893 27.5761 35.2826 28.5575 35.2726C29.5376 35.2826 30.3318 34.4898 30.3318 33.5157V27.9081C30.4884 27.0978 31.2016 26.4844 32.0567 26.4844C33.0258 26.4844 33.8145 27.2731 33.8145 28.2422V33.5157C33.8145 34.4866 34.6014 35.2735 35.5723 35.2735C36.5432 35.2735 37.3301 34.4866 37.3301 33.5157V30.586C37.3301 29.6169 38.1189 28.8282 39.0879 28.8282C40.057 28.8282 40.8457 29.6169 40.8457 30.586V33.5157C40.8457 34.4866 41.6326 35.2735 42.6036 35.2735C43.5745 35.2735 44.3614 34.4866 44.3614 33.5157V32.9297C44.3614 31.9606 45.1501 31.1719 46.1192 31.1719C47.0883 31.1719 47.877 31.9606 47.877 32.9297V51.211Z" fill="#3376FC"/>
</g>
<defs>
<clipPath id="clip0">
<rect width="60" height="60" fill="white"/>
</clipPath>
</defs>
</svg>
