<svg width="60" height="60" viewBox="0 0 60 60" fill="none" xmlns="http://www.w3.org/2000/svg">
<path d="M50.6457 29.5298C52.5316 27.9166 53.7305 25.5221 53.7305 22.8516C53.7305 18.6071 50.7061 15.056 46.6992 14.2393V8.78906C46.6992 3.94277 42.7564 0 37.9102 0H23.8477C19.5712 0 16.0003 3.07066 15.2191 7.12254C8.21449 7.91813 2.75391 13.8798 2.75391 21.0938C2.75391 25.357 4.70918 29.3864 8.02734 32.0497V51.0938C8.02734 51.5549 8.20852 51.9976 8.53195 52.3264L15.5632 59.4749C15.8937 59.8109 16.3452 60 16.8164 60C17.2876 60 17.7391 59.8107 18.0696 59.4749L25.1009 52.3264C25.7776 51.6383 25.773 50.5334 25.0907 49.8509L22.8177 47.5779L25.091 45.3033C25.7694 44.6245 25.7781 43.5273 25.1106 42.8379L22.7981 40.4497L25.0907 38.1572C25.4203 37.8275 25.6056 37.3805 25.6056 36.9143V32.05C28.9238 29.3866 30.879 25.3573 30.879 21.094C30.879 14.0228 25.6324 8.15473 18.8277 7.17586C19.5109 5.05477 21.5025 3.51562 23.8477 3.51562H37.9102C40.8179 3.51562 43.1836 5.88129 43.1836 8.78906V14.2393C39.1767 15.0559 36.1523 18.607 36.1523 22.8516C36.1523 25.5221 37.3512 27.9166 39.2371 29.5298C35.3169 31.5898 32.6367 35.7023 32.6367 40.4297V44.0625C32.6367 45.0333 33.4237 45.8203 34.3945 45.8203H55.4883C56.4591 45.8203 57.2461 45.0333 57.2461 44.0625V40.4297C57.2461 35.7023 54.5659 31.5898 50.6457 29.5298ZM16.8164 17.5781C17.7857 17.5781 18.5742 18.3667 18.5742 19.3359C18.5742 20.3052 17.7857 21.0938 16.8164 21.0938C15.8471 21.0938 15.0586 20.3052 15.0586 19.3359C15.0586 18.3667 15.8471 17.5781 16.8164 17.5781ZM27.3633 21.0938C27.3633 24.5222 25.6725 27.7512 22.8404 29.7312C22.37 30.06 22.0898 30.5979 22.0898 31.1718V36.186L19.0891 39.1868C18.4104 39.8654 18.4016 40.963 19.0692 41.6525L21.382 44.0412L19.0888 46.3357C18.4027 47.0222 18.4028 48.135 19.0891 48.8213L21.372 51.1042L16.8164 55.7354L11.543 50.3741V31.1718C11.543 30.5978 11.2628 30.06 10.7924 29.7312C7.96031 27.7512 6.26953 24.5222 6.26953 21.0938C6.26953 15.877 10.0768 11.5336 15.0586 10.6942V14.3648C13.0126 15.0905 11.543 17.0443 11.543 19.3359C11.543 22.2437 13.9086 24.6094 16.8164 24.6094C19.7242 24.6094 22.0898 22.2437 22.0898 19.3359C22.0898 17.0443 20.6202 15.0905 18.5742 14.3648V10.6942C23.556 11.5336 27.3633 15.877 27.3633 21.0938ZM44.9414 17.5781C47.8492 17.5781 50.2148 19.9438 50.2148 22.8516C50.2148 25.7593 47.8492 28.125 44.9414 28.125C42.0336 28.125 39.668 25.7593 39.668 22.8516C39.668 19.9438 42.0336 17.5781 44.9414 17.5781ZM53.7305 42.3047H36.1523V40.4297C36.1523 35.5834 40.0951 31.6406 44.9414 31.6406C49.7877 31.6406 53.7305 35.5834 53.7305 40.4297V42.3047Z" fill="#3376FC"/>
<path d="M16.8164 28.125C15.8456 28.125 15.0586 28.912 15.0586 29.8828V33.3984C15.0586 34.3692 15.8456 35.1562 16.8164 35.1562C17.7872 35.1562 18.5742 34.3692 18.5742 33.3984V29.8828C18.5742 28.912 17.7872 28.125 16.8164 28.125Z" fill="#3376FC"/>
</svg>
