<svg width="52" height="52" viewBox="0 0 52 52" fill="none" xmlns="http://www.w3.org/2000/svg">
<path d="M26.0011 0.0809937C11.6857 0.0809937 0.0810547 11.6856 0.0810547 26.001C0.0810547 40.3164 11.6857 51.921 26.0011 51.921C40.3165 51.921 51.9211 40.3164 51.9211 26.001C51.9211 11.6856 40.3165 0.0809937 26.0011 0.0809937ZM19.6561 36.7443H14.4073V19.8531H19.6561V36.7443ZM16.9993 17.7795C15.3415 17.7795 14.2696 16.605 14.2696 15.1524C14.2696 13.6701 15.3739 12.5307 17.0668 12.5307C18.7597 12.5307 19.7965 13.6701 19.8289 15.1524C19.8289 16.605 18.7597 17.7795 16.9993 17.7795ZM38.8261 36.7443H33.5773V27.3834C33.5773 25.2045 32.8159 23.7249 30.9178 23.7249C29.4679 23.7249 28.6066 24.7266 28.2259 25.6905C28.0855 26.0334 28.0504 26.5194 28.0504 27.0027V36.7416H22.7989V25.2396C22.7989 23.1309 22.7314 21.3678 22.6612 19.8504H27.2215L27.4618 22.1967H27.5671C28.2583 21.0951 29.9512 19.4697 32.7835 19.4697C36.2368 19.4697 38.8261 21.7836 38.8261 26.757V36.7443Z" fill="#F3F1F2"/>
</svg>
