<svg width="85" height="85" viewBox="0 0 85 85" fill="none" xmlns="http://www.w3.org/2000/svg">
<g clip-path="url(#clip0)">
<path d="M72.1244 52.969L72.1244 31.8839C72.1244 28.9702 69.7667 26.6126 66.8531 26.6126L31.7114 26.6126C28.7979 26.6126 26.4401 28.97 26.4402 31.8838L26.4402 52.9689C26.4402 55.8825 28.7976 58.2402 31.7115 58.2402L66.8532 58.2403C69.7667 58.2403 72.1245 55.8826 72.1244 52.969ZM68.6102 32.6117L68.6102 52.241L58.7955 42.4263L68.6102 32.6117ZM29.9543 52.2411L29.9543 32.6117L39.7689 42.4263L29.9543 52.241L29.9543 52.2411ZM32.4308 30.1349L66.1337 30.135L50.533 45.7358C49.8478 46.4209 48.7166 46.4209 48.0315 45.7358L32.4307 30.135L32.4308 30.1349ZM32.4308 54.7177L42.2456 44.903L45.5549 48.2123C47.6102 50.2676 50.9543 50.2675 53.0095 48.2123L56.3189 44.903L66.1336 54.7177L32.4308 54.7177Z" fill="#3376FC"/>
<path d="M22.8675 38.9122C22.8675 37.9417 22.0808 37.155 21.1104 37.1551L5.99889 37.1552C5.02839 37.1552 4.24176 37.9418 4.24184 38.9122C4.24176 39.8827 5.02855 40.6695 5.99889 40.6693L21.1105 40.6693C22.081 40.6693 22.8676 39.8827 22.8675 38.9122Z" fill="#3376FC"/>
<path d="M22.867 31.8838C22.867 30.9133 22.0803 30.1265 21.1099 30.1268L13.0267 30.1268C12.0562 30.1268 11.2696 30.9134 11.2696 31.8838C11.2696 32.8543 12.0563 33.6411 13.0267 33.6409L21.1099 33.6409C22.0803 33.6409 22.8669 32.8543 22.867 31.8838Z" fill="#3376FC"/>
<path d="M22.8676 45.9405C22.8676 44.97 22.0809 44.1833 21.1104 44.1834L5.99883 44.1834C5.02833 44.1834 4.2417 44.97 4.24179 45.9405C4.2417 46.9109 5.0285 47.6977 5.99884 47.6975L21.1104 47.6975C22.0809 47.6975 22.8675 46.9109 22.8676 45.9405Z" fill="#3376FC"/>
<path d="M22.867 52.9689C22.8671 51.9985 22.0804 51.2118 21.11 51.2118L13.0267 51.2118C12.0562 51.2118 11.2696 51.9985 11.2697 52.9689C11.2696 53.9393 12.0564 54.7261 13.0267 54.7259L21.11 54.7259C22.0805 54.7259 22.8671 53.9393 22.867 52.9689Z" fill="#3376FC"/>
</g>
<defs>
<clipPath id="clip0">
<rect width="60" height="60" fill="white" transform="translate(42.4258) rotate(45)"/>
</clipPath>
</defs>
</svg>
