<svg width="56" height="56" viewBox="0 0 56 56" fill="none" xmlns="http://www.w3.org/2000/svg">
<path d="M28 0.875C13.0207 0.875 0.875 13.0207 0.875 28C0.875 42.9793 13.0207 55.125 28 55.125C42.9793 55.125 55.125 42.9793 55.125 28C55.125 13.0207 42.9793 0.875 28 0.875ZM41.0357 21.3217C41.0539 21.6063 41.0539 21.9029 41.0539 22.1936C41.0539 31.0818 34.2848 41.3203 21.915 41.3203C18.1006 41.3203 14.5646 40.2123 11.5857 38.3051C12.1307 38.3656 12.6514 38.3898 13.2084 38.3898C16.3568 38.3898 19.251 37.3242 21.5578 35.5199C18.6031 35.4594 16.1207 33.5219 15.273 30.8578C16.3084 31.0092 17.2408 31.0092 18.3064 30.7367C16.7851 30.4276 15.4176 29.6014 14.4364 28.3983C13.4552 27.1952 12.9207 25.6896 12.9238 24.1371V24.0523C13.8139 24.5549 14.8613 24.8637 15.9572 24.9061C15.036 24.2921 14.2804 23.4603 13.7576 22.4844C13.2348 21.5085 12.9609 20.4186 12.9602 19.3115C12.9602 18.0582 13.2871 16.9139 13.8744 15.9209C15.5631 17.9997 17.6703 19.6999 20.0591 20.911C22.4478 22.122 25.0647 22.8169 27.7396 22.9504C26.7891 18.3791 30.2039 14.6797 34.309 14.6797C36.2465 14.6797 37.9902 15.491 39.2193 16.7988C40.7391 16.5143 42.1922 15.9451 43.4879 15.1822C42.9854 16.7383 41.9318 18.0521 40.5332 18.8816C41.8895 18.7363 43.1973 18.3609 44.4082 17.8342C43.4939 19.1783 42.3496 20.3711 41.0357 21.3217Z" fill="#F3F1F2"/>
</svg>
