<svg viewBox="0 0 168 51" fill="none" xmlns="http://www.w3.org/2000/svg">
<path d="M58.1263 28.8478C58.1263 36.4602 55.1532 43.6134 49.7513 48.9853C47.4622 51.2676 43.7493 51.2676 41.4601 48.9853L29.5536 37.1143L17.6472 48.9853C15.358 51.2676 11.6451 51.2676 9.35595 48.9853C3.95408 43.5995 0.980957 36.4463 0.980957 28.8478C0.980957 21.2354 3.95408 14.0822 9.35595 8.71036C14.7578 3.32461 21.9324 0.360352 29.5536 0.360352C37.1889 0.360352 44.3634 3.32461 49.7653 8.71036C55.1532 14.0822 58.1263 21.2354 58.1263 28.8478ZM44.8659 35.8479C45.857 33.6769 46.3874 31.3111 46.3874 28.8478C46.3874 24.3666 44.6426 20.1499 41.4601 16.9769C38.2776 13.8039 34.0482 12.0643 29.5536 12.0643C25.0591 12.0643 20.8297 13.8039 17.6472 16.9769C14.4647 20.1499 12.7199 24.3666 12.7199 28.8478C12.7199 31.2971 13.2503 33.6769 14.2414 35.8479L25.408 24.7146C27.6972 22.4322 31.4101 22.4322 33.6993 24.7146L44.8659 35.8479Z" fill="url(#paint0_linear)"/>
<path d="M25.4082 24.7146L14.2416 35.8479C14.2416 35.834 14.2276 35.8201 14.2276 35.8201C14.2137 35.834 14.2137 35.834 14.1997 35.8479C15.0232 37.671 16.1818 39.3688 17.6474 40.8301C19.0712 42.2496 20.7043 43.3768 22.477 44.1979L17.6474 49.0131L29.5539 37.1422L36.6307 44.1979C38.4034 43.3768 40.0366 42.2496 41.4603 40.8301C42.912 39.3827 44.0705 37.7127 44.894 35.8897C44.8661 35.8618 44.8382 35.834 44.8103 35.7923L33.6995 24.7146C31.4103 22.4184 27.6974 22.4184 25.4082 24.7146Z" fill="url(#paint1_linear)"/>
<path d="M25.4082 24.7146L14.2416 35.8479C14.2416 35.834 14.2276 35.8201 14.2276 35.8201C14.2137 35.834 14.2137 35.834 14.1997 35.8479C15.0232 37.671 16.1818 39.3688 17.6474 40.8301C19.0712 42.2496 20.7043 43.3768 22.477 44.1979L17.6474 49.0131L29.5539 37.1422L36.6307 44.1979C38.4034 43.3768 40.0366 42.2496 41.4603 40.8301C42.912 39.3827 44.0705 37.7127 44.894 35.8897C44.8661 35.8618 44.8382 35.834 44.8103 35.7923L33.6995 24.7146C31.4103 22.4184 27.6974 22.4184 25.4082 24.7146Z" fill="url(#paint2_linear)"/>
<path d="M66.9062 20.3447V20.1917H69.7817L73.1456 30.8379L77.2634 20.7762H79.1617L83.2794 30.8379L86.6434 20.1917H89.5188V20.3447L84.6334 35.1382H82.2465L78.2125 25.313L74.1786 35.1382H71.7917L66.9062 20.3447Z" fill="#1C1C1C"/>
<path d="M98.7175 32.8139C100.574 32.8139 102.165 32.2015 103.575 31.0186L104.831 33.3427C103.156 34.6509 101.286 35.4441 98.8152 35.4441C93.6227 35.4441 90.4263 32.118 90.4263 27.609C90.4263 23.434 93.3575 19.8853 98.1452 19.8853C102.933 19.8853 106.227 23.3923 105.627 28.945H93.3575C93.8321 31.3248 95.6606 32.8139 98.7175 32.8139ZM102.835 26.5096C102.5 23.8515 100.672 22.5155 98.1312 22.5155C95.4094 22.5155 93.7065 24.1298 93.3017 26.5096H102.835Z" fill="#1C1C1C"/>
<path d="M107.804 27.6647C107.804 23.3923 110.945 19.8853 115.886 19.8853C120.827 19.8853 123.968 23.3923 123.968 27.6647C123.968 31.9371 120.827 35.4441 115.886 35.4441C110.945 35.4441 107.804 31.9371 107.804 27.6647ZM121.065 27.6647C121.065 24.7422 119.055 22.5712 115.9 22.5712C112.759 22.5712 110.735 24.7422 110.735 27.6647C110.735 30.5872 112.745 32.7582 115.9 32.7582C119.041 32.7582 121.065 30.5872 121.065 27.6647Z" fill="#1C1C1C"/>
<path d="M143.216 27.6647C143.216 31.9093 140.006 35.4441 135.497 35.4441C133.418 35.4441 131.505 34.7065 130.221 33.1618V41.2473H127.346V20.1914H130.221V22.1676C131.505 20.6089 133.432 19.8853 135.497 19.8853C140.006 19.8853 143.216 23.4201 143.216 27.6647ZM140.285 27.6647C140.285 24.7422 138.387 22.5712 135.009 22.5712C133.055 22.5712 131.505 23.3088 130.221 24.8535V30.4619C131.505 32.0206 133.055 32.7443 135.009 32.7443C138.401 32.7582 140.285 30.5872 140.285 27.6647Z" fill="#1C1C1C"/>
<path d="M150.419 22.8079V30.6848C150.419 32.2156 151.494 32.814 153.015 32.814C153.992 32.814 154.969 32.6053 155.849 32.1739V34.7067C154.844 35.1938 153.839 35.4443 152.61 35.4443C149.86 35.4443 147.543 33.983 147.543 30.8657V22.8079H144.738V20.1777H147.543V15.5991H150.419V20.1777H156.03V22.8079H150.419Z" fill="#1C1C1C"/>
<path d="M164.586 32.8418H163.777V34.8458H163.121V32.8418H162.325V32.2017H164.6V32.8418H164.586ZM167.811 32.2017V34.8319H167.155V33.3707L166.415 34.317H166.373L165.633 33.3707V34.8458H164.977V32.2156H165.48L166.387 33.4402L167.294 32.2156H167.811V32.2017Z" fill="#1C1C1C"/>
<defs>
<linearGradient id="paint0_linear" x1="29.5534" y1="50.7022" x2="29.5534" y2="0.356384" gradientUnits="userSpaceOnUse">
<stop offset="0.3406" stop-color="#065EFF"/>
<stop offset="0.721" stop-color="#0000B6"/>
</linearGradient>
<linearGradient id="paint1_linear" x1="12.5116" y1="50.5259" x2="25.2407" y2="39.6665" gradientUnits="userSpaceOnUse">
<stop stop-color="#367D82"/>
<stop offset="0.4465" stop-color="#96BBBE"/>
<stop offset="0.8259" stop-color="#E1ECED"/>
<stop offset="1" stop-color="white"/>
</linearGradient>
<linearGradient id="paint2_linear" x1="29.5431" y1="48.989" x2="29.5431" y2="22.9951" gradientUnits="userSpaceOnUse">
<stop offset="0.3773" stop-color="#0027AA"/>
<stop offset="0.7633" stop-color="#0040E2"/>
<stop offset="1" stop-color="#004DFF"/>
</linearGradient>
</defs>
</svg>
